<svg xmlns="http://www.w3.org/2000/svg" viewBox="0 0 576 240" width="576" height="240" role="img" aria-label="Playable contribution shooter board">
  <title>Contribution shooter — playable board</title>
  <style>
    .title { fill: #58a6ff; font: 700 15px "Segoe UI", Ubuntu, sans-serif; }
    .hud { fill: #7d8590; font: 600 12px "Segoe UI", Ubuntu, sans-serif; }
    .status { fill: #e3b341; font: 700 13px "Segoe UI", Ubuntu, sans-serif; }
    .label { fill: #484f58; font: 500 9px "Segoe UI", Ubuntu, sans-serif; text-anchor: middle; }
    .label-on { fill: #ffd166; font-weight: 700; }
    .hull { fill: #58a6ff; }
    .cockpit { fill: #0d1117; }
    .flame { fill: #ff7b52; }
    .aim { stroke: #ffd166; stroke-width: 1.5; stroke-dasharray: 3 5; opacity: .35; }
    .clear { fill: #39d353; font: 700 26px "Segoe UI", Ubuntu, sans-serif; text-anchor: middle; }
  </style>
  <rect width="576" height="240" rx="12" fill="#0d1117" stroke="#21262d"/>
  <text class="title" x="22" y="38">CONTRIBUTION SHOOTER</text>
  <text class="hud" x="22" y="56">SHOTS 0 · REMAINING 49/49 · LAST @kokonao1111</text>
  <text class="status" x="554" y="38" text-anchor="end">READY</text>
  <line class="aim" x1="307" y1="184" x2="307" y2="72"/>
    <rect x="26" y="72" width="30" height="16" rx="3" fill="#39d353"/>
    <rect x="26" y="92" width="30" height="16" rx="3" fill="#39d353"/>
    <rect x="26" y="112" width="30" height="16" rx="3" fill="#39d353"/>
    <rect x="26" y="132" width="30" height="16" rx="3" fill="#39d353"/>
    <rect x="64" y="72" width="30" height="16" rx="3" fill="#26a641"/>
    <rect x="64" y="92" width="30" height="16" rx="3" fill="#26a641"/>
    <rect x="64" y="112" width="30" height="16" rx="3" fill="#26a641"/>
    <rect x="102" y="72" width="30" height="16" rx="3" fill="#39d353"/>
    <rect x="102" y="92" width="30" height="16" rx="3" fill="#39d353"/>
    <rect x="102" y="112" width="30" height="16" rx="3" fill="#39d353"/>
    <rect x="102" y="132" width="30" height="16" rx="3" fill="#39d353"/>
    <rect x="140" y="72" width="30" height="16" rx="3" fill="#39d353"/>
    <rect x="140" y="92" width="30" height="16" rx="3" fill="#39d353"/>
    <rect x="140" y="112" width="30" height="16" rx="3" fill="#39d353"/>
    <rect x="140" y="132" width="30" height="16" rx="3" fill="#39d353"/>
    <rect x="178" y="72" width="30" height="16" rx="3" fill="#39d353"/>
    <rect x="178" y="92" width="30" height="16" rx="3" fill="#39d353"/>
    <rect x="178" y="112" width="30" height="16" rx="3" fill="#39d353"/>
    <rect x="178" y="132" width="30" height="16" rx="3" fill="#39d353"/>
    <rect x="216" y="72" width="30" height="16" rx="3" fill="#39d353"/>
    <rect x="216" y="92" width="30" height="16" rx="3" fill="#39d353"/>
    <rect x="216" y="112" width="30" height="16" rx="3" fill="#39d353"/>
    <rect x="216" y="132" width="30" height="16" rx="3" fill="#39d353"/>
    <rect x="254" y="72" width="30" height="16" rx="3" fill="#39d353"/>
    <rect x="254" y="92" width="30" height="16" rx="3" fill="#39d353"/>
    <rect x="254" y="112" width="30" height="16" rx="3" fill="#39d353"/>
    <rect x="254" y="132" width="30" height="16" rx="3" fill="#39d353"/>
    <rect x="292" y="72" width="30" height="16" rx="3" fill="#39d353"/>
    <rect x="292" y="92" width="30" height="16" rx="3" fill="#39d353"/>
    <rect x="292" y="112" width="30" height="16" rx="3" fill="#39d353"/>
    <rect x="292" y="132" width="30" height="16" rx="3" fill="#39d353"/>
    <rect x="330" y="72" width="30" height="16" rx="3" fill="#26a641"/>
    <rect x="330" y="92" width="30" height="16" rx="3" fill="#26a641"/>
    <rect x="330" y="112" width="30" height="16" rx="3" fill="#26a641"/>
    <rect x="368" y="72" width="30" height="16" rx="3" fill="#26a641"/>
    <rect x="368" y="92" width="30" height="16" rx="3" fill="#26a641"/>
    <rect x="368" y="112" width="30" height="16" rx="3" fill="#26a641"/>
    <rect x="406" y="72" width="30" height="16" rx="3" fill="#26a641"/>
    <rect x="406" y="92" width="30" height="16" rx="3" fill="#26a641"/>
    <rect x="406" y="112" width="30" height="16" rx="3" fill="#26a641"/>
    <rect x="444" y="72" width="30" height="16" rx="3" fill="#26a641"/>
    <rect x="444" y="92" width="30" height="16" rx="3" fill="#26a641"/>
    <rect x="444" y="112" width="30" height="16" rx="3" fill="#26a641"/>
    <rect x="482" y="72" width="30" height="16" rx="3" fill="#26a641"/>
    <rect x="482" y="92" width="30" height="16" rx="3" fill="#26a641"/>
    <rect x="482" y="112" width="30" height="16" rx="3" fill="#26a641"/>
    <rect x="520" y="72" width="30" height="16" rx="3" fill="#26a641"/>
    <rect x="520" y="92" width="30" height="16" rx="3" fill="#26a641"/>
    <rect x="520" y="112" width="30" height="16" rx="3" fill="#26a641"/>
    <text class="label" x="41" y="166">7/12</text>
    <text class="label" x="79" y="166">7/13</text>
    <text class="label" x="117" y="166">7/14</text>
    <text class="label" x="155" y="166">7/15</text>
    <text class="label" x="193" y="166">7/16</text>
    <text class="label" x="231" y="166">7/17</text>
    <text class="label" x="269" y="166">7/18</text>
    <text class="label label-on" x="307" y="166">7/19</text>
    <text class="label" x="345" y="166">7/20</text>
    <text class="label" x="383" y="166">7/21</text>
    <text class="label" x="421" y="166">7/22</text>
    <text class="label" x="459" y="166">7/23</text>
    <text class="label" x="497" y="166">7/24</text>
    <text class="label" x="535" y="166">7/25</text>
  
  <g transform="translate(307 0)">
    <path class="hull" d="M0 188 L13 218 L0 210 L-13 218 Z"/><circle class="cockpit" cx="0" cy="203" r="2.8"/><rect class="flame" x="-6.5" y="210" width="3.5" height="8" rx="1.75"/><rect class="flame" x="3" y="210" width="3.5" height="8" rx="1.75"/>
  </g>
</svg>
