<svg xmlns="http://www.w3.org/2000/svg" viewBox="0 0 700 440" width="350" height="220" role="img" aria-label="使用言語の内訳: TypeScript 28.5%, CSS 22.4%, Swift 18.1%, HTML 16.5%, JavaScript 11.8%, Other 2.6%">
  <title>Top languages</title>
  <style>
    .frame { fill: #0d1117; stroke: #e4e2e2; stroke-width: 2; }
    text { font-family: "Segoe UI", Ubuntu, sans-serif; }
    .title { fill: #006aff; font-size: 23px; font-weight: 700; letter-spacing: 1.5px; }
    .label { fill: #7d8590; font-size: 19px; font-weight: 600; }
    .value { fill: #e6edf3; font-size: 30px; font-weight: 700; }
    .pct { fill: #7d8590; font-size: 19px; font-weight: 600; }
    .lang { fill: #e6edf3; font-size: 20px; font-weight: 600; }</style>
  <defs><clipPath id="bar"><rect x="30" y="112" width="640" height="26" rx="13"/></clipPath></defs>
  <rect class="frame" x="1" y="1" width="698" height="438" rx="20"/>
  <text class="title" x="30" y="66">TOP LANGUAGES</text>
  <g clip-path="url(#bar)"><rect x="30.00" y="112" width="182.43" height="26" fill="#3178c6"/><rect x="212.43" y="112" width="143.49" height="26" fill="#663399"/><rect x="355.92" y="112" width="115.71" height="26" fill="#F05138"/><rect x="471.62" y="112" width="105.83" height="26" fill="#e34c26"/><rect x="577.46" y="112" width="75.82" height="26" fill="#f1e05a"/><rect x="653.27" y="112" width="16.73" height="26" fill="#6e7681"/></g>
  <circle cx="41" cy="222" r="9" fill="#3178c6"/><text class="lang" x="62" y="229">TypeScript</text><text class="pct" x="332" y="229" text-anchor="end">28.5%</text>
  <circle cx="369" cy="222" r="9" fill="#663399"/><text class="lang" x="390" y="229">CSS</text><text class="pct" x="660" y="229" text-anchor="end">22.4%</text>
  <circle cx="41" cy="284" r="9" fill="#F05138"/><text class="lang" x="62" y="291">Swift</text><text class="pct" x="332" y="291" text-anchor="end">18.1%</text>
  <circle cx="369" cy="284" r="9" fill="#e34c26"/><text class="lang" x="390" y="291">HTML</text><text class="pct" x="660" y="291" text-anchor="end">16.5%</text>
  <circle cx="41" cy="346" r="9" fill="#f1e05a"/><text class="lang" x="62" y="353">JavaScript</text><text class="pct" x="332" y="353" text-anchor="end">11.8%</text>
  <circle cx="369" cy="346" r="9" fill="#6e7681"/><text class="lang" x="390" y="353">Other</text><text class="pct" x="660" y="353" text-anchor="end">2.6%</text>
</svg>
